<svg xmlns="http://www.w3.org/2000/svg" fill="none" viewBox="0 0 400 300"><path fill="#1a1a2e" d="M0 0h400v300H0z"/><rect width="50" height="40" x="120" y="40" fill="#2d2d44" stroke="#646cff" stroke-width="2" rx="6"/><rect width="50" height="40" x="175" y="40" fill="#2d2d44" stroke="#646cff" stroke-width="2" rx="6"/><rect width="50" height="40" x="230" y="40" fill="#2d2d44" stroke="#646cff" stroke-width="2" rx="6"/><rect width="50" height="40" x="65" y="110" fill="#2d2d44" stroke="#42d392" stroke-width="2" rx="6"/><rect width="50" height="40" x="120" y="110" fill="#2d2d44" stroke="#42d392" stroke-width="2" rx="6"/><rect width="50" height="40" x="175" y="110" fill="#2d2d44" stroke="#42d392" stroke-width="2" rx="6"/><rect width="50" height="40" x="230" y="110" fill="#2d2d44" stroke="#42d392" stroke-width="2" rx="6"/><rect width="50" height="40" x="285" y="110" fill="#2d2d44" stroke="#42d392" stroke-width="2" rx="6"/><rect width="70" height="40" x="120" y="180" fill="#2d2d44" stroke="#ff6b6b" stroke-width="2" rx="6"/><rect width="70" height="40" x="210" y="180" fill="#2d2d44" stroke="#ffd93d" stroke-width="2" rx="6"/><text x="145" y="65" fill="#fff" font-family="monospace" font-size="10" text-anchor="middle">M1</text><text x="200" y="65" fill="#fff" font-family="monospace" font-size="10" text-anchor="middle">M2</text><text x="255" y="65" fill="#fff" font-family="monospace" font-size="10" text-anchor="middle">M3</text><text x="90" y="135" fill="#fff" font-family="monospace" font-size="10" text-anchor="middle">W1</text><text x="145" y="135" fill="#fff" font-family="monospace" font-size="10" text-anchor="middle">W2</text><text x="200" y="135" fill="#fff" font-family="monospace" font-size="10" text-anchor="middle">W3</text><text x="255" y="135" fill="#fff" font-family="monospace" font-size="10" text-anchor="middle">W4</text><text x="310" y="135" fill="#fff" font-family="monospace" font-size="10" text-anchor="middle">W5</text><text x="155" y="205" fill="#fff" font-family="monospace" font-size="10" text-anchor="middle">ROCm</text><text x="245" y="205" fill="#fff" font-family="monospace" font-size="10" text-anchor="middle">CUDA</text><path stroke="#646cff" d="m145 80-55 30M145 80v30M200 80v30M255 80v30M255 80l55 30" opacity=".5"/><rect width="270" height="30" x="65" y="250" fill="#2d2d44" stroke="#888" rx="6"/><text x="200" y="270" fill="#888" font-family="monospace" font-size="12" text-anchor="middle">Longhorn Distributed Storage</text><circle cx="30" cy="50" r="6" fill="#646cff"/><text x="45" y="54" fill="#888" font-family="sans-serif" font-size="10">Control Plane</text><circle cx="30" cy="75" r="6" fill="#42d392"/><text x="45" y="79" fill="#888" font-family="sans-serif" font-size="10">Workers</text><circle cx="30" cy="100" r="6" fill="#ff6b6b"/><text x="45" y="104" fill="#888" font-family="sans-serif" font-size="10">AI (AMD)</text><circle cx="30" cy="125" r="6" fill="#ffd93d"/><text x="45" y="129" fill="#888" font-family="sans-serif" font-size="10">AI (NVIDIA)</text></svg>